<svg xmlns="http://www.w3.org/2000/svg" viewBox="0 0 222.91 29.83"><defs><style>.cls-1{fill:#ed793d;}.cls-2{fill:#fff;}.cls-3{fill:#7b7269;}</style></defs><title>n8</title><g id="Layer_2" data-name="Layer 2"><polygon class="cls-1" points="18.34 1.4 18.39 19.69 6.75 1.4 0 1.4 0 28.74 4.65 28.74 4.65 9.37 17.26 28.74 22.84 28.74 22.84 1.4 18.34 1.4"/><path class="cls-1" d="M437.72,584c2.33-1.05,3.69-3.5,4.11-7.3-.4-5.19-3.47-7.31-8.22-7.5-5.75.49-8.54,3-8.59,7.32q-.18,5.76,4.16,7.47c-2.95,1.71-4.17,3.92-4.17,6.49q.21,8.6,8.46,8.3c5.88-.17,8.71-2.79,8.32-8C441.61,587.1,440.13,585,437.72,584Z" transform="translate(-395.29 -568.93)"/><path class="cls-2" d="M433.42,573.36q-4.06.2-4.15,4.11a4.32,4.32,0,0,0,4.23,4.39c2.44-.52,4.08-1.77,4.23-4.39S436.46,573.53,433.42,573.36Z" transform="translate(-395.29 -568.93)"/><path class="cls-2" d="M433.42,586.06q-4.24.07-4.15,4.2c-.07,2.92,1.41,4.27,4.15,4.34s4.3-1.31,4.31-4.34C437.68,587.64,436.43,586.08,433.42,586.06Z" transform="translate(-395.29 -568.93)"/><rect class="cls-3" x="53.57" width="7.07" height="29.82"/><polygon class="cls-3" points="109.47 0 95 0 95 29.83 109.47 29.83 109.47 25.52 100.52 25.3 100.3 17.34 109.47 17.34 109.47 11.71 100.74 11.71 100.52 5.75 109.47 5.75 109.47 0"/><polygon class="cls-3" points="139.62 0 134.76 0 134.99 20.11 123.94 0 115.54 0 115.54 29.83 122.17 29.83 122.17 9.94 133.88 29.83 140.29 29.83 139.62 0"/><polygon class="cls-3" points="144.37 0 144.37 5.75 151.88 5.75 151.88 29.83 156.75 29.83 156.75 5.75 164.15 5.75 164.15 0 144.37 0"/><polygon class="cls-3" points="168.01 0 168.46 29.83 173.65 29.83 173.65 0 168.01 0"/><polygon class="cls-3" points="177.07 0 177.07 5.97 184.14 5.97 184.14 29.83 190.55 29.83 190.55 5.97 196.62 5.86 196.62 0 177.07 0"/><polygon class="cls-3" points="217.5 0 212.75 10.49 207.56 0 201.15 0 209.99 17.12 209.99 29.83 215.29 29.83 215.29 17.12 222.91 0 217.5 0"/><path class="cls-3" d="M461.68,568.93l.08,29.83c15.1-.23,22.56-5.18,22.48-14.76C484.23,573.14,475.78,568.84,461.68,568.93Z" transform="translate(-395.29 -568.93)"/><path class="cls-2" d="M467.41,573.25v21.09q10.82-.19,10.73-10.34C478.13,575.8,473.9,573.06,467.41,573.25Z" transform="translate(-395.29 -568.93)"/></g><g id="Layer_3" data-name="Layer 3"><path class="cls-2" d="M467.41,573.46v21.09q10.82-.19,10.73-10.34C478.13,576,473.9,573.27,467.41,573.46Z" transform="translate(-395.29 -568.93)"/></g></svg>