<svg id="Layer_1" data-name="Layer 1" xmlns="http://www.w3.org/2000/svg" viewBox="0 0 561.88 262.36"><defs><style>.cls-1{fill:#fcfcfc;}.cls-2{fill:#231f20;}.cls-3{fill:#fefefe;}</style></defs><title>ontario</title><path class="cls-1" d="M440,537.36q-139.92,0-279.84,0c-.9,0-1.1-.2-1.1-1.1q0-130.08,0-260.16c0-.9.2-1.1,1.1-1.1q279.84,0,559.68,0c.9,0,1.1.2,1.1,1.1q0,130.08,0,260.16c0,.9-.2,1.1-1.1,1.1Q580,537.35,440,537.36Z" transform="translate(-159.1 -275.02)"/><path class="cls-2" d="M401.47,479.88c-8.35-.07-15.62-2.22-21.57-7.87a32,32,0,0,1-9.19-17.27,47,47,0,0,1,1.8-26.87C377,416.08,387,409,399.7,408.6c8.39-.29,16,1.81,22.29,7.58a32,32,0,0,1,9.62,17.56c2,9.77,1.66,19.42-2.47,28.63-4.9,10.93-13.6,16.54-25.46,17.41C402.83,479.84,402,479.86,401.47,479.88Z" transform="translate(-159.1 -275.02)"/><path class="cls-2" d="M549.88,472.14c-6.61,8.17-18,10.24-26.24,5-4-2.52-5.77-6.29-6.19-10.81-.94-10,5-14.9,12.26-17.28a29.77,29.77,0,0,1,9.55-1.49c3,0,5.92-.08,8.87.15.41,0,.81.08.8-.55-.09-3.56-.43-7.06-3.15-9.75-2.17-2.14-5-2.64-7.84-2.71a21.31,21.31,0,0,0-14,4.63c-.15.12-.32.21-.64.41-.15-2.58-.27-5-.43-7.47,0-.41.2-.57.48-.73,7.65-4.56,15.78-5.8,24.26-3,5.93,2,8.61,6.76,9.7,12.61a36.34,36.34,0,0,1,.54,6.68c0,7.76,0,15.52,0,23.28,0,2.23.16,4.47.34,6.7.06.75-.16.88-.82.87-2.2,0-4.4,0-6.6,0-.7,0-.89-.23-.87-.9C549.91,476,549.88,474.22,549.88,472.14Z" transform="translate(-159.1 -275.02)"/><path class="cls-2" d="M614.45,453.52c.14-6.47,1.56-12.37,5.47-17.44a22.33,22.33,0,0,1,16.94-8.87c7.51-.51,14.14,1.53,19.42,7.13a25.63,25.63,0,0,1,6.7,15.28c.83,7.53-.55,14.57-5.13,20.74a23.75,23.75,0,0,1-40.09-3.21A29.89,29.89,0,0,1,614.45,453.52Z" transform="translate(-159.1 -275.02)"/><path class="cls-2" d="M448.28,435.9c5.1-9.19,17.13-10.64,24.7-6.89,5.19,2.56,7.38,7.26,8.44,12.65a35.49,35.49,0,0,1,.6,6.79c0,9.68,0,19.35,0,29,0,.9-.17,1.26-1.16,1.22-2.24-.08-4.48-.07-6.72,0-.93,0-1.12-.28-1.11-1.15,0-8.92,0-17.83,0-26.75a35.68,35.68,0,0,0-.74-7.37c-1.71-8.1-9.22-11.28-16.33-6.9-3.68,2.27-5.42,5.86-6.46,9.85a32.18,32.18,0,0,0-1,8.18c0,7.68,0,15.35,0,23,0,.92-.24,1.13-1.12,1.1-2.2-.07-4.4-.08-6.6,0-1,0-1.25-.23-1.25-1.24q.05-22.13,0-44.26c0-1.36,0-2.72,0-4.08,0-.7.22-.87.89-.86q3.42.06,6.84,0c.74,0,1,.22.94,1C448.25,431.45,448.28,433.67,448.28,435.9Z" transform="translate(-159.1 -275.02)"/><path class="cls-2" d="M514.67,471q0,3.57,0,7.16a.62.62,0,0,1-.55.66c-5,1.39-10.09,1.69-15-.38-4.75-2-6.86-5.88-7.32-10.79-.32-3.47-.11-7-.12-10.43q0-10.08,0-20.15c0-1-.25-1.22-1.2-1.19-2.07.07-4.15,0-6.52,0,1.88-1.88,3.47-3.71,5.31-5.24a5.91,5.91,0,0,0,2.43-5.54c-.23-2.5-.05-5-.05-7.55,0-.43-.09-.9.48-1.08l8.79-2.79c0,2,0,3.78,0,5.61,0,2.6.05,5.2,0,7.8,0,1,.31,1.25,1.28,1.23,3.56-.06,7.12,0,10.68,0,.74,0,1,.13,1,1-.07,1.88-.06,3.76,0,5.64,0,.78-.19,1-1,1-3.64,0-7.28,0-10.92,0-.83,0-1.06.2-1.06,1,0,8.84,0,17.67,0,26.51,0,4.14,1.89,7.29,5.09,8.46a10.06,10.06,0,0,0,7.68-.58A1.55,1.55,0,0,1,514.67,471Z" transform="translate(-159.1 -275.02)"/><path class="cls-2" d="M275.15,407a5.63,5.63,0,0,1,2.12.72,19.78,19.78,0,0,1,3.15,2.18,36.92,36.92,0,0,0,19.08,7.9c9.26,1.22,18.31-.1,27.29-2.27.19,0,.39-.11.58-.14,1.08-.16,2.64.61,2.76,1.45.17,1.14-.72,1.59-1.56,2a39.22,39.22,0,0,1-9.19,2.57c-8.76,1.78-17.61,3.09-26.43,4.53a24.29,24.29,0,0,0-15.51,8.89q-7.94,9.76-15.9,19.5a63.58,63.58,0,0,1-5.83,6.35,7.8,7.8,0,0,1-2,1.49c-1,.47-1.75,0-1.68-1.16a3.59,3.59,0,0,1,.92-2.39A78.68,78.68,0,0,0,268.12,436a50,50,0,0,0,4.14-19.29,50.86,50.86,0,0,1,.13-6.1,6.15,6.15,0,0,1,.76-2.5A2,2,0,0,1,275.15,407Z" transform="translate(-159.1 -275.02)"/><path class="cls-2" d="M355.82,390.11c-.19-.42-.6-.52-.94-.72a102.65,102.65,0,0,0-29.18-11.72,77.6,77.6,0,0,0-8.15-1.29c-.43,0-1.2.26-1.23-.56s.73-.76,1.23-.88A47.33,47.33,0,0,1,328,373.68c10.84-.11,21.08,2.61,31.06,6.57A108.5,108.5,0,0,1,374,387.52c1.08.64,1.12,1,.12,1.72-12.18,9.13-25.17,16.73-39.88,21a53.35,53.35,0,0,1-17.5,2.28c-.32,0-.64,0-1,0s-1,0-1-.59.42-.74.92-.88c14.61-4,27.41-11.54,39.53-20.4C355.39,390.48,355.6,390.29,355.82,390.11Z" transform="translate(-159.1 -275.02)"/><path class="cls-2" d="M328.84,369.57A73.93,73.93,0,0,0,302,372.23a53.07,53.07,0,0,0-18.62,10,26.21,26.21,0,0,1-4.77,3.39c-2.23,1.13-3.23.51-3.25-2a35,35,0,0,1,1.11-6.72c2.39-12.51-1-23.28-9.75-32.44a2,2,0,0,1-.61-1.7c.12-1.29,1-1.86,2.18-1.27a11.42,11.42,0,0,1,3.1,2.61A163.55,163.55,0,0,1,283,358.35a16.84,16.84,0,0,0,15.24,7.3c3.23-.13,6.47-.13,9.71-.16,6.63-.06,13.26-.29,19.88.26a11,11,0,0,1,3.51.71c1.19.51,1.32,1.36.32,2.18A3.27,3.27,0,0,1,328.84,369.57Z" transform="translate(-159.1 -275.02)"/><path class="cls-2" d="M574.56,436.65a17.31,17.31,0,0,1,9.46-8.11,17.6,17.6,0,0,1,7.83-.37c.6.07.68.39.68.89,0,2.16,0,4.32,0,6.48,0,.71-.2.91-.89.77a12.71,12.71,0,0,0-4.53-.11c-4.87.77-7.79,3.88-9.72,8.17A28.49,28.49,0,0,0,575.17,456q-.06,10.74,0,21.48c0,1-.28,1.21-1.21,1.18-2.36-.06-4.72,0-7.08,0-.79,0-1.11-.15-1.11-1q0-24,0-48c0-.8.23-1,1-1q3.42.07,6.84,0c.75,0,.95.2.93.93C574.53,431.95,574.56,434.3,574.56,436.65Z" transform="translate(-159.1 -275.02)"/><path class="cls-2" d="M221.17,436.72a15.59,15.59,0,0,1,1.24-4c3.14-7.55,6.93-14.79,10.51-22.14,1.69-3.48,3.47-6.91,4-10.82.49-3.32-.17-6.51-.9-9.72-1.45-6.34-3.11-12.63-4.09-19.07a15.55,15.55,0,0,1-.14-3.11c0-.85.14-1.81,1.27-1.82s1.25.89,1.38,1.76a41.09,41.09,0,0,0,5.5,15.82,24.92,24.92,0,0,0,13,10.5,14.52,14.52,0,0,1,3.65,1.77c1.55,1.12,1.64,2.45.24,3.8a14.17,14.17,0,0,1-3.88,2.57c-10.81,5.1-18.29,13.56-24,23.78a91.11,91.11,0,0,0-5,10.33,3,3,0,0,1-1.14,1.34c-.37.26-.77.5-1.22.28S221.17,437.22,221.17,436.72Z" transform="translate(-159.1 -275.02)"/><path class="cls-2" d="M224.83,467.07a92.35,92.35,0,0,0,12.44-6.42,82.1,82.1,0,0,0,17.51-14.07c.31-.34.62-.95,1.14-.61s.15.93-.06,1.38a55.31,55.31,0,0,1-15,18.61,84.83,84.83,0,0,1-22.42,13.38c-1.64.67-1.7.64-1.61-1.06.74-13.44,3-26.56,8.52-38.94a46.91,46.91,0,0,1,5.46-9.26c.22-.29.45-.56.69-.83a.44.44,0,0,1,.64-.07.68.68,0,0,1,.13.54,4.08,4.08,0,0,1-.29.78,100.39,100.39,0,0,0-6.16,24.78C225.33,459.13,225,463,224.83,467.07Z" transform="translate(-159.1 -275.02)"/><path class="cls-2" d="M598.28,453.36c0-8,0-15.92,0-23.87,0-1,.29-1.25,1.26-1.22,2.32.07,4.64.05,7,0,.8,0,1.1.16,1.1,1q0,24.17,0,48.35c0,.88-.31,1.05-1.1,1-2.32,0-4.64-.07-7,0-1,0-1.26-.2-1.26-1.23C598.3,469.44,598.28,461.4,598.28,453.36Z" transform="translate(-159.1 -275.02)"/><path class="cls-2" d="M240.5,362.92a58.15,58.15,0,0,0,.64,8.11c.08.46.3,1-.32,1.25s-.77-.45-1-.82a26.38,26.38,0,0,1-3.42-11.11c-.91-9.07.47-17.9,2.83-26.63.2-.73.43-1.14,1.3-1,7.11,1.55,13.73,4.17,19.34,8.93a23.09,23.09,0,0,1,7.27,10.49c.15.47.42.94-.14,1.27s-.79-.2-1.08-.49c-6-6.06-13.46-9.4-21.54-11.6-.81-.22-.86.23-1,.74a93,93,0,0,0-2.82,18.78C240.57,361.56,240.53,362.24,240.5,362.92Z" transform="translate(-159.1 -275.02)"/><path class="cls-2" d="M283.79,437.58a11.52,11.52,0,0,1,1.08-5.17,1.86,1.86,0,0,1,1.71-1.1c3.68-.1,7.87,4.31,7.57,8-.26,3.13-2.15,5.26-4.77,5.38s-5-2.19-5.43-5.13C283.85,438.83,283.83,438.11,283.79,437.58Z" transform="translate(-159.1 -275.02)"/><path class="cls-2" d="M602.91,410.2a5.72,5.72,0,1,1-5.75,5.64A5.7,5.7,0,0,1,602.91,410.2Z" transform="translate(-159.1 -275.02)"/><path class="cls-2" d="M300.23,353.34a6.37,6.37,0,0,1-1.11,3.28,13.16,13.16,0,0,1-6.49,4.89c-1.4.5-2,.12-2.29-1.36-.68-3.87,1.1-8.91,5.82-10.1A3.1,3.1,0,0,1,300.23,353.34Z" transform="translate(-159.1 -275.02)"/><path class="cls-2" d="M229.63,396.6a6.18,6.18,0,0,1,4.48,2.32,1.77,1.77,0,0,1,0,2.41,10.08,10.08,0,0,1-5.71,3.68c-2.64.58-4.6-1.57-4-4.24A5.87,5.87,0,0,1,229.63,396.6Z" transform="translate(-159.1 -275.02)"/><path class="cls-3" d="M422.7,444.28c0,6-1.05,11.69-4.09,16.9-4.17,7.16-10.55,10.32-18.71,9.92-7.58-.37-13.12-4.1-16.63-10.78-3.22-6.13-4-12.73-3.47-19.53a30.32,30.32,0,0,1,4.31-13.93c4.23-6.78,10.38-9.94,18.34-9.51,7.63.4,13,4.28,16.59,10.89A33,33,0,0,1,422.7,444.28Z" transform="translate(-159.1 -275.02)"/><path class="cls-3" d="M544.24,454.68h3.95c.36,0,.74-.05.73.51,0,3.5.32,7-1.32,10.34-2.32,4.65-6.29,6.6-11.27,6.77-3.74.12-6.83-1.22-8.68-4.64a7.72,7.72,0,0,1,2.45-10,17.86,17.86,0,0,1,8-2.83A24.21,24.21,0,0,1,544.24,454.68Z" transform="translate(-159.1 -275.02)"/><path class="cls-3" d="M653.78,454.1A21.86,21.86,0,0,1,649.66,467a13.57,13.57,0,0,1-21.76-.14c-5.26-7.11-5.3-19.1-.08-26.27,6-8.19,17.16-7.82,22.57.75A23.17,23.17,0,0,1,653.78,454.1Z" transform="translate(-159.1 -275.02)"/></svg>