<svg id="Layer_1" data-name="Layer 1" xmlns="http://www.w3.org/2000/svg" viewBox="0 0 512.22 512.17"><defs><style>.cls-1{fill:#fefefe;}.cls-2{fill:#231f20;}.cls-3{fill:#ada992;}.cls-4{fill:#aca892;}.cls-5{fill:#aca891;}.cls-6{fill:#aca992;}.cls-7{fill:#aeaa93;}.cls-8{fill:#b4b09b;}</style></defs><title>sqlpower</title><path class="cls-1" d="M589.49,598q-125.72,0-251.44.09c-3.3,0-4.16-.5-4.16-4q.17-251.94,0-503.88c0-3.8,1-4.26,4.43-4.26q251.69.14,503.38,0c3.46,0,4.41.52,4.41,4.28q-.19,251.69,0,503.38c0,3.91-1.05,4.52-4.67,4.52Q715.46,597.92,589.49,598Z" transform="translate(-333.89 -85.92)"/><path class="cls-2" d="M656.12,404c13,0,24.49,0,36,0,7.36,0,11.88,4.29,11.81,11.06-.06,6.14-4.86,10.4-11.92,10.41-35.82,0-71.66.77-107.45-.18-37.74-1-68.12-17.41-90.9-47.73a104.43,104.43,0,0,1-20.36-48.68c-5-35.71,3.29-68.13,27.26-95.86a125.78,125.78,0,0,1,19-17.44c3.09-2.36,5.21-3.24,7.7.9a126.74,126.74,0,0,0,9.36,12.76c1.2,1.53,1.93,2.34-.16,3.87-20.14,14.72-31.33,34.89-35.84,59.13-6.72,36.07,7.37,77.93,40.52,98.24a89.2,89.2,0,0,0,37.56,12.64c22.24,2.4,43-1.67,61.72-14.16,21.78-14.56,33.84-35.7,38.15-61,4.63-27.19-.42-52.66-16.55-75.54a76.86,76.86,0,0,0-19.2-19.22c-2.39-1.65-3.62-2.81-1-5.64A91.24,91.24,0,0,0,650.29,216c1.48-2.24,2.5-2.9,5-1.1,25.54,18.76,42.29,43.61,47.33,74.73,7,43.37-7.63,79.79-40,109.21C660.88,400.37,659,401.67,656.12,404Z" transform="translate(-333.89 -85.92)"/><path class="cls-3" d="M598,260.48c0,28.48-.09,57,.1,85.43,0,4.24-1.22,5.65-5.32,5.15-4.4-.54-10.1,1.88-12.94-1-2.6-2.68-.76-8.25-.77-12.54,0-54,0-107.91-.14-161.86,0-4.46,1.18-6,5.57-5.45s9.75-1.74,12.53.93.9,8.21.92,12.47C598,209.19,598,234.83,598,260.48Z" transform="translate(-333.89 -85.92)"/><path class="cls-4" d="M665.42,476.59c-3.24,10.21-6.41,19.44-9,28.83-1.08,3.87-3,4.61-6.67,4.74-4,.14-4.68-2.08-5.51-4.91-3.72-12.74-7.37-25.5-11.34-38.17-1.21-3.87-.85-5,3.62-5.27,5.2-.28,7.34,1.44,8.28,6.46,1.44,7.64,3.58,15.15,5.52,23.1,2.34-2.05,2.27-4.84,3.11-7.15,2-5.47,3.72-11,5.55-16.55s4.57-7,10.31-5.67c2.22.5,2.21,2.28,2.67,3.73,2.84,8.82,5.58,17.66,8.76,27.81,2.55-9.87,4.78-18.48,7-27.08,1-3.69,7.31-6.24,10.43-4.23,1.34.87.79,2.08.49,3.11-4.11,14-8.38,28-12.32,42-1,3.52-3.35,2.47-5.47,2.59-2.48.15-4.79.44-5.81-3C672.13,497.1,668.86,487.36,665.42,476.59Z" transform="translate(-333.89 -85.92)"/><path class="cls-4" d="M600.34,461c15.23,0,25.78,10.31,25.65,25s-11,25-26.56,25c-15.06-.08-25.31-10.45-25.5-25.36C573.78,472.52,583.39,460.23,600.34,461Z" transform="translate(-333.89 -85.92)"/><path class="cls-5" d="M791.81,509.22c-9.05,2.95-14.32-.14-17.15-8.2-1-2.78-2.87-5.22-4.11-7.93-1.11-2.42-3.07-2.3-5-2-2.21.36-1.44,2.31-1.48,3.64a77.2,77.2,0,0,0,0,10.47c.45,4.19-1.38,5-5.09,4.88-3.49-.07-5.4-.38-5.29-4.77.31-13,.22-25.94,0-38.91,0-3.49,1-4.75,4.5-4.47,7.42.61,14.92-.93,22.3,1,5.15,1.32,8.68,4.27,9.41,9.65.85,6.18.52,12.45-6,15.51-3.86,1.83-2.93,3.36-1.34,5.9C785.78,499,788.76,504.13,791.81,509.22Z" transform="translate(-333.89 -85.92)"/><path class="cls-2" d="M468.69,503c4.18,0,7,.14,9.8,0s4.15.2,4.2,3.62c.05,3.75-1.94,3.49-4.37,3.41-9.8-.35-19.66.89-29.41-.73-12.12-2-22-10.58-19.89-28.62,1.14-9.65,10.54-20.56,26.83-19.71,12.09.63,22.75,10.82,23.09,23.08C479.15,491.57,476.38,497.93,468.69,503Z" transform="translate(-333.89 -85.92)"/><path class="cls-4" d="M708,485.79c0-6.66.09-13.33,0-20-.05-2.66.54-3.91,3.55-3.85q13,.25,26,0c3.25-.07,3.59,1.66,3.32,4.07s1.3,5.81-3.23,5.82c-5,0-10,.21-15,0-3.76-.2-3.85,1.87-3.89,4.66s.32,4.78,4,4.55c4.31-.27,8.67.13,13-.12,3.69-.21,3.48,2,3.44,4.48s.51,5.13-3.56,4.92c-4.49-.24-9,.06-13.49-.07-4.21-.13-3.23,2.85-3.28,5.18s-.6,4.8,3.23,4.67c5.49-.19,11,.13,16.49-.1,4.26-.18,3.37,2.69,3.34,5s1,5.18-3.27,5.09c-9-.19-18-.15-27,0-2.91.05-3.7-1-3.64-3.77C708.11,499.45,708,492.62,708,485.79Z" transform="translate(-333.89 -85.92)"/><path class="cls-6" d="M530.16,485.87c0-6.66,0-13.33,0-20,0-1.53-.62-3.84,2-3.78,8,.21,16-1.21,23.85.75,7.65,1.91,10.3,5.86,10.2,14.24-.1,7.59-3.35,11.74-10.67,13.51a18.64,18.64,0,0,1-3.46.42c-11,.54-11,.54-11.05,11.83,0,.5,0,1,0,1.5,0,5-5,7.81-9.62,5.48-1.63-.81-1.18-2.23-1.19-3.47C530.13,499.53,530.16,492.7,530.16,485.87Z" transform="translate(-333.89 -85.92)"/><path class="cls-2" d="M384.75,504.35a24.6,24.6,0,0,0,2.84-2.45c2.14-2.53,4.14-4,7.09-.82,2.73,3,6.53,2.21,9.89,1.68a6.13,6.13,0,0,0,5-5.54,5.56,5.56,0,0,0-3.64-5.9c-2.94-1.13-5.91-2.17-8.86-3.28-8.16-3.07-11-7.49-10.07-15.39.72-5.78,6.61-10.89,13.74-11.57,4.79-.45,9.65-.4,13.95,2.2,1.14.69,4.58,1.1,2.17,3.5-1.68,1.67-2.16,6.51-6.43,3.81a12.33,12.33,0,0,0-10-1.67,5.72,5.72,0,0,0-4.65,4.64,4.9,4.9,0,0,0,3.09,5.67c3.11,1.41,6.35,2.56,9.57,3.74,7.13,2.6,10.34,7,10,13.61C418,503.5,414,508.26,407.14,510,399,512.16,391.71,510.55,384.75,504.35Z" transform="translate(-333.89 -85.92)"/><path class="cls-2" d="M492.7,486c0-6.82.29-13.65-.11-20.44-.24-4.15,2.12-3.41,4.6-3.63,3-.27,3.95.64,3.88,3.79-.22,10.8,0,21.61-.15,32.42,0,2.91.46,4.17,3.74,3.94,4.47-.32,9,.17,13.46-.16,3.62-.26,3.1,1.92,3.07,4.06s.64,4.25-3,4.1c-7.47-.3-15-.18-22.44,0-2.41,0-3.12-.71-3.07-3.09C492.8,500,492.71,493,492.7,486Z" transform="translate(-333.89 -85.92)"/><path class="cls-6" d="M703.76,398l36.51,17.11-37.36,17.59c4.26-5.05,7.89-10.57,7.79-17.07C710.6,409.4,708.15,403.44,703.76,398Z" transform="translate(-333.89 -85.92)"/><path class="cls-7" d="M822.92,469.47c-2.66,2.09-1.72,6.46-4.49,6.16s-2.09-4.67-4.43-7.15c0,2,0,3.41,0,4.83,0,1.13.13,2.59-1.59,2.48s-1.36-1.6-1.39-2.69c-.06-2.32-.06-4.65,0-7,0-1.26-.31-2.81,1.68-3,1.68-.15,2.82.36,3.35,2.17s1.32,3.35,2.13,5.35c1.87-1.72,2.09-3.87,2.76-5.71.59-1.61,1.57-1.89,3-1.87,1.9,0,2.06,1.27,2.05,2.69,0,2.49,0,5,0,7.46,0,1.08.29,2.56-1.47,2.59s-1.53-1.39-1.57-2.52S822.92,471.07,822.92,469.47Z" transform="translate(-333.89 -85.92)"/><path class="cls-8" d="M803.84,463.17c.87.23,3-1,3.85.86,1.06,2.24-2.18,1.63-2.41,2.88a46.42,46.42,0,0,0-.45,6.38c-.06,1.42-.21,2.75-2.12,2.6-1.64-.13-1.46-1.43-1.64-2.57-.43-2.8,1.49-6.34-2.75-8-.83-.33-.33-1.92.9-2.1A35.41,35.41,0,0,1,803.84,463.17Z" transform="translate(-333.89 -85.92)"/><path class="cls-1" d="M599.84,501c-9,0-14.81-5.86-14.84-15,0-9.64,5.55-15.23,15.1-15.16,8.59.07,14.73,6.16,14.83,14.72C615,494.74,608.91,501,599.84,501Z" transform="translate(-333.89 -85.92)"/><path class="cls-1" d="M770,482c-5.42,0-8.17-4.6-5.84-9.78.13-.29.27-.77.48-.81,4.09-.84,8.21-1.19,12.16.54,3,1.31,2.82,4.15,2.1,6.48-1.19,3.81-4.71,3.57-7.89,3.58Z" transform="translate(-333.89 -85.92)"/><path class="cls-1" d="M453.27,502c-9.29,0-16-7.26-15.93-17.1.09-9.49,7-16.4,16.27-16.39,9.57,0,16.3,7,16.41,16.78C470.13,494.44,462.44,503.19,453.27,502Z" transform="translate(-333.89 -85.92)"/><path class="cls-1" d="M546.76,482c-5.11,0-8-5.07-5.61-9.91a1.93,1.93,0,0,1,1.94-1.18,53.48,53.48,0,0,1,7.42.24c3.12.48,5.13,2.41,4.84,5.78s-2.34,4.94-5.62,5.06C548.74,482,547.75,482,546.76,482Z" transform="translate(-333.89 -85.92)"/></svg>