<svg xmlns="http://www.w3.org/2000/svg" width="256" height="46"><defs><clipPath id="a"><path d="M0 0h256v46H0z"/></clipPath></defs><g data-name="Group 9" clip-path="url(#a)"><path data-name="Path 1" d="M67.007 3.612l-10.57 12.541-10.57-12.541a4.694 4.694 0 00-3.642-1.8 4.952 4.952 0 00-3.523 1.494A4.664 4.664 0 0037.15 6.77a4.952 4.952 0 001.375 3.342l12.421 14.512v14.571a5.151 5.151 0 001.553 4.031 5.734 5.734 0 004 1.4 5.543 5.543 0 003.911-1.4 5.2 5.2 0 001.523-4.031V24.628l12.539-14.516a5.016 5.016 0 001.314-3.284 4.726 4.726 0 00-1.583-3.494 5 5 0 00-3.554-1.523 4.692 4.692 0 00-3.642 1.801" fill="#3e8dff"/><path data-name="Path 2" d="M142.489 33.047q-2.687-3.342-2.687-9.852t2.687-9.825a10 10 0 0114.9.031q2.717 3.345 2.718 9.794t-2.688 9.823a9.972 9.972 0 01-14.93.029m-3.732-28.783a17.945 17.945 0 00-7.315 7.5 24.171 24.171 0 00-2.568 11.436 24.161 24.161 0 002.568 11.435 18.111 18.111 0 007.315 7.525 24.8 24.8 0 0022.335 0 18.111 18.111 0 007.315-7.525 24.173 24.173 0 002.568-11.435 24.43 24.43 0 00-2.537-11.436 17.779 17.779 0 00-7.286-7.5 25.169 25.169 0 00-22.4 0" fill="#3e8dff"/><path data-name="Path 3" d="M204.834 8.307v17.805l-.059.124-18.15-22.569a4.843 4.843 0 00-4-1.792 4.895 4.895 0 00-3.7 1.494 5.373 5.373 0 00-1.433 3.881v37.949c0 1.634 10.21-1.948 10.21-6.755V20.212l18.214 22.876a4.841 4.841 0 004 1.792 4.907 4.907 0 003.7-1.493 5.378 5.378 0 001.433-3.882V1.553c0-.28-.3-.41-.794-.41-2.4 0-9.418 3.067-9.418 7.164" fill="#3e8dff"/><path data-name="Path 4" d="M112.034 5.275l-10.928 20.662L90.118 5.275a7.223 7.223 0 00-2.21-2.657 5.266 5.266 0 00-6.658.566 5.308 5.308 0 00-1.464 3.882v37.353c0 1.513 9.615-1.559 9.615-6.931V22.354l6.748 12.183a7.7 7.7 0 002.15 2.717 4.889 4.889 0 005.375 0 7.724 7.724 0 002.149-2.717l6.808-12.541v15.492c0 5.477 9.555 8.444 9.555 6.931V7.066a5.375 5.375 0 00-1.434-3.882 4.907 4.907 0 00-3.7-1.493q-3.165 0-5.016 3.584" fill="#3e8dff"/><path data-name="Path 5" d="M20.878 33.275c-.83 1.262-4.125.688-5.158.476-10.607-1.688-13.538 8.055-13.538 8.055 6.741 4 24.068 6.162 26.859-.842 2.7-6.774-9.863-11.366-9.863-11.366s2.871 1.9 1.7 3.677" fill="#18aff0"/><path data-name="Path 6" d="M5.817 5.564c-2.7 6.774 9.2 10.471 9.2 10.471s-2.1-1.324-1.106-2.9c.805-1.277 4.134-.473 5.226-.361 10.607 1.687 13.539-8.057 13.539-8.057C29.107 2.599 22.576.996 16.797.996 11.663.996 7.13 2.263 5.816 5.56" fill="#4f1fb2"/><path data-name="Path 7" d="M1.079 15.768c.922 8.888 13.492 11.566 17.62 13.647 12.783 6.446 10.28 11.656 8.6 13.61a10.005 10.005 0 01-1.413.832 10.95 10.95 0 001.16-.554 5.434 5.434 0 01-.614.554 14.28 14.28 0 008.011-12.328v-.278a14.522 14.522 0 00-.068-1.042 9.554 9.554 0 00-2.58-5.564c-2.381-2.792-6.3-5.06-11.517-6.667C8.525 14.359 5.625 9.044 5.802 6.271 5.959 3.76 9.565 2.12 9.565 2.12S.043 5.779 1.079 15.768" fill="#3e8dff"/><path data-name="Path 8" d="M222.725 42.733a2.244 2.244 0 11-2.244-2.245 2.245 2.245 0 012.244 2.245" fill="#0dc6de"/><path data-name="Path 9" d="M246.983 42.612a2.083 2.083 0 01-.77 1.63 2.612 2.612 0 01-1.762.669 2.243 2.243 0 01-1.223-.349 2.352 2.352 0 01-.873-1.048l-1.31-2.94h-9.432l-1.34 2.94a2.273 2.273 0 01-2.125 1.4 2.716 2.716 0 01-1.79-.669 2.051 2.051 0 01-.8-1.63 2.5 2.5 0 01.262-1.077l7.687-15.779a2.7 2.7 0 011.12-1.208 3.388 3.388 0 013.275 0 2.7 2.7 0 011.136 1.208l7.684 15.779a2.5 2.5 0 01.262 1.077m-7.743-6.055l-2.911-6.492-2.911 6.492z" fill="#0dc6de"/><path data-name="Path 10" d="M249.225 44.79V28.282c0-2.663 5.356-4.933 5.356-4.138v16.693c0 2.847-5.356 4.767-5.356 3.953" fill="#0dc6de"/></g></svg>